<?xml version="1.0" encoding="iso-8859-1"?>
<!-- Generator: Adobe Illustrator 19.0.0, SVG Export Plug-In . SVG Version: 6.00 Build 0)  -->
<svg version="1.1" id="Logo" xmlns="http://www.w3.org/2000/svg" xmlns:xlink="http://www.w3.org/1999/xlink" x="0px" y="0px"
	 viewBox="-71.667 380.466 344.917 80.424" style="enable-background:new -71.667 380.466 344.917 80.424;" xml:space="preserve">
<g>
	<path style="fill:#FFFFFF;" d="M221.065,429.834c0,0.321-0.115,0.609-0.346,0.862c-0.229,0.253-0.528,0.379-0.896,0.379
		s-0.667-0.126-0.897-0.379c-0.229-0.253-0.345-0.541-0.345-0.862c0-0.322,0.115-0.61,0.345-0.863s0.529-0.379,0.897-0.379
		s0.667,0.126,0.896,0.379C220.95,429.224,221.065,429.512,221.065,429.834z"/>
	<path style="fill:#FFFFFF;" d="M238.821,428.522h0.046v-13.869h1.656v16.284h-2.07l-9.476-14.007h-0.046v14.007h-1.656v-16.284
		h2.07L238.821,428.522z"/>
	<path style="fill:#FFFFFF;" d="M248.229,429.466h8.717v1.472h-10.373v-16.285h10.097v1.473h-8.44v5.589h7.889v1.472h-7.889
		L248.229,429.466L248.229,429.466L248.229,429.466z"/>
	<path style="fill:#FFFFFF;" d="M267.708,430.937h-1.656v-14.811h-5.45v-1.473h12.558v1.473h-5.451L267.708,430.937L267.708,430.937
		z"/>
</g>
<path id="Wolf" style="fill:#E41C24;" d="M92.881,435.422l-0.774-0.019L90.89,435.8l-1.525,0.736l-1.219,0.743l-0.755,0.69
	l-0.884,1.713l-0.591,1.257l-0.474,1.376l-0.978,1.022c0,0-0.732,0.611-0.776,0.904c-0.045,0.296,0.663,0.673,0.663,0.673
	l1.439,0.216c0,0,1.652,0.349,1.786,0.394c0.134,0.045,1.392,0.574,1.392,0.574l0.877,0.801l0.186,1.319l-0.43,1.011
	c0,0-0.362,0.338-0.859,0.252c-0.502-0.085-1.101-0.182-1.101-0.182l-0.977-0.056l-1.029-0.056L85.421,450l0.093,0.732
	c0,0-0.556,0.594-0.671,0.65c-0.111,0.056-1.349,0.266-1.349,0.266l-1.862-0.039l-1.713-0.372l-0.964-0.474l-9.334,0.158
	l-2.343-0.08c0,0-1.593-0.206-1.734-0.206c-0.139,0-1.396-0.621-1.396-0.621l-1.566-0.019l-1.312,0.51l-1.358,0.191
	c0,0-1.189,0.068-1.365,0.169c-0.175,0.1-0.817,0.591-0.868,0.791c-0.052,0.201-0.254,0.809-0.216,1
	c0.039,0.193,0.401,0.927,0.401,0.927l1.158,1.321c0,0,0.725,1.215,0.849,1.419c0.123,0.205,0.527,1.445,0.568,1.568
	c0.021,0.06,0.205,0.793-0.132,1.319c-0.362,0.568-1.244,0.927-1.244,0.927s-1.158,0.273-1.56,0.37
	c-0.401,0.093-0.784,0.193-1.715,0.212c-0.927,0.019-2.404-0.156-2.404-0.156l-2.135-0.457c0,0-1.678-0.271-2.369-0.494
	c-0.332-0.108-1.237-0.545-1.967-1.108c-0.78-0.602-1.377-1.334-1.377-1.334l-1.036-1.485l-0.656-1.523c0,0-0.401-1.176-0.357-2.036
	c0-0.067,0.234-1.097,0.671-1.933c0.407-0.78,1.018-1.371,1.018-1.371l1.578-1.189l1.586-0.884c0,0,1.824-0.94,2.567-1.327
	c0.743-0.379,2.477-0.954,2.477-0.954l2.188-0.714c0,0,0.91-0.223,1.81-0.338c0.682-0.09,1.402-0.073,1.453-0.115
	c0.12-0.097,0.134-0.346,0.134-0.346l0.167-1.369l0.317-2.559l0.476-2.073l1.017-2.163l1.19-2.065l1.078-1.535l2.194-2.843
	l1.727-2.047l1.371-1.803l2.007-1.933l2.993-1.954l1.191-0.937l1.659-1.321c0,0,2.315-2.04,3.233-2.848
	c0.918-0.809,2.932-3.005,2.932-3.005l1.319-2.37l0.561-1.626l0.654-2.738l0.959-2.835l1.18-5.57l0.782-1.535l1.19-1.31l1.897-1.994
	l1.682-1.519l1.584-1.674l1.752-1.471l1.437-1.239l1.505-0.521l1.605-0.582l0.925-0.823l1.124-1.154l1.243-1.306
	c0,0,0.677-0.762,1.052-1.195c0.335-0.392,1.284-0.539,1.284-0.539s0.704,0,0.938,0.087c0.232,0.086,0.48,1.184,0.48,1.184
	l0.321,1.209c0,0,0.481,1.401,0.415,1.862c-0.067,0.457-0.729,1.481-0.729,1.481s0.023-0.18-0.677,0.812
	c-0.694,0.994-0.36,1.17-0.192,1.096c0.167-0.077,0.668-0.595,0.668-0.595l0.662-0.866l0.704-0.517c0,0,0.406-0.203,0.735-0.197
	c0.325,0.007,0.374,0.81,0.407,1.259c0.033,0.446-0.106,1.29-0.106,1.29l-0.596,1.315l-1.334,1.999l-1.031,1.331
	c0,0-0.741,0.851-1.251,1.492c-0.507,0.643-0.453,2.107-0.453,2.107l0.208,1.207l0.541,1.067l0.745,1.165l0.431,1l0.156,1.323
	l0.115,1.28v2.925l-0.154,2.239l-0.085,1.925l-0.061,1.52l-0.44,1.48c0,0-0.463,0.984-0.764,1.688c-0.305,0.702-0.44,2.13-0.44,2.13
	l-0.429,1.759l-0.909,1.604l-1.073,2.217l-0.73,1.692l-0.527,0.97l-0.528,1.319l-0.189,1.661l-0.085,2.9l-0.064,3.188l0.087,1.28
	l0.229,1.871l0.588,1.328l0.589,1.65l0.462,1.319l0.342,0.914l0.606,0.737l0.96,0.492l0.897,0.29l0.736,0.338l0.789,0.376
	l0.643,0.52l0.43,0.665l0.132,0.885l0.013,0.858l-0.538,0.488l-0.949,0.346l-1.419,0.205l-0.669,0.453l-0.842,0.272l-1.1,0.22
	l-0.881-0.162l-0.926,0.08l-0.843-0.08l-1.109-0.252l-0.603-0.21l-0.614-0.381l-0.335-0.71l-0.041-0.658l-0.616-0.612l-0.788-0.718
	l-0.922-0.657l-0.843-0.513l-0.227-0.893l0.306-1.048l0.374-0.916l-0.201-1.069l-0.386-0.939l-0.294-1.122l-0.457-0.985
	l-0.401-0.605l0.015-0.572l0.067-0.513v-0.558l0.025-0.808L92.881,435.422z"/>
<g id="Schrift">
	<path style="fill:#FFFFFF;" d="M-70.5,402.657L-70.5,402.657l9.748,25.051h0.08l7.95-25.051h1.784l7.926,25.051h0.08l7.032-25.051
		h2.716l-8.231,28.287h-3.236l-7.151-25.171h-0.08l-7.151,25.171h-3.237L-70.5,402.657z"/>
	<path style="fill:#FFFFFF;" d="M-23.497,416.802c0-2.159,0.361-4.144,1.08-5.953c0.719-1.811,1.719-3.377,2.997-4.695
		c1.278-1.319,2.816-2.35,4.615-3.097c1.796-0.745,3.775-1.119,5.932-1.119c2.157,0,4.136,0.374,5.933,1.119
		c1.798,0.747,3.337,1.778,4.615,3.097c1.278,1.317,2.278,2.883,2.997,4.695c0.719,1.81,1.078,3.794,1.078,5.953
		c0,2.157-0.358,4.146-1.078,5.972c-0.719,1.824-1.719,3.396-2.997,4.715s-2.816,2.345-4.615,3.077
		c-1.797,0.731-3.775,1.098-5.933,1.098c-2.157,0-4.136-0.366-5.932-1.098c-1.799-0.732-3.337-1.758-4.615-3.077
		s-2.278-2.891-2.997-4.715C-23.136,420.948-23.497,418.959-23.497,416.802z M-20.858,416.802c0,1.758,0.278,3.396,0.838,4.912
		c0.559,1.52,1.358,2.839,2.398,3.958c1.039,1.118,2.296,1.995,3.775,2.634c1.477,0.642,3.136,0.961,4.974,0.961
		c1.837,0,3.497-0.319,4.974-0.961c1.479-0.639,2.737-1.516,3.775-2.634c1.038-1.119,1.837-2.438,2.398-3.958
		c0.56-1.516,0.838-3.154,0.838-4.912s-0.279-3.396-0.838-4.916c-0.561-1.516-1.36-2.835-2.398-3.954
		c-1.039-1.118-2.296-1.999-3.775-2.638c-1.477-0.639-3.136-0.958-4.974-0.958c-1.837,0-3.496,0.319-4.974,0.958
		c-1.479,0.639-2.737,1.52-3.775,2.638c-1.041,1.119-1.839,2.438-2.398,3.954C-20.58,413.405-20.858,415.044-20.858,416.802z"/>
	<path style="fill:#FFFFFF;" d="M19.37,402.657h2.636v25.891h13.186v2.396H19.37V402.657z"/>
	<path style="fill:#FFFFFF;" d="M47.163,402.657h16.94v2.398H49.8v10.066h13.305v2.396H49.8v13.426h-2.637V402.657z"/>
	<path style="fill:#FFFFFF;" d="M114.976,428.867l16.54-23.811l-16.3-2.398l0,0h19.695v2.157l-16.66,23.734l17.101,2.396l0,0
		h-20.376V428.867L114.976,428.867z"/>
	<path style="fill:#FFFFFF;" d="M147.641,402.657h17.299v2.398h-14.663v10.066h13.745v2.396h-13.745v11.031h15.303v2.396h-17.939
		V402.657z"/>
	<path style="fill:#FFFFFF;" d="M178.413,402.657h2.637v28.287h-2.637V402.657z"/>
	<path style="fill:#FFFFFF;" d="M202.768,405.056h-9.669v-2.398h21.974v2.398h-9.669v25.889h-2.636L202.768,405.056L202.768,405.056
		z"/>
</g>
</svg>
